<?xml version="1.0" standalone="no"?>
<!DOCTYPE svg PUBLIC "-//W3C//DTD SVG 20010904//EN"
 "http://www.w3.org/TR/2001/REC-SVG-20010904/DTD/svg10.dtd">
<svg version="1.0" xmlns="http://www.w3.org/2000/svg"
 width="5000.000000pt" height="5000.000000pt" viewBox="0 0 5000.000000 5000.000000"
 preserveAspectRatio="xMidYMid meet">

<g transform="translate(0.000000,5000.000000) scale(0.100000,-0.100000)"
fill="#000000" stroke="none">
<path d="M24470 36003 c-2226 -31 -4541 -243 -6665 -609 -3135 -541 -5845
-1378 -8202 -2534 -2527 -1240 -4420 -2754 -5549 -4440 -230 -343 -367 -579
-599 -1030 -83 -163 -168 -320 -188 -351 -42 -63 -104 -231 -171 -467 -195
-679 -264 -1394 -200 -2061 10 -111 19 -160 32 -180 10 -14 24 -38 31 -53 19
-36 40 -43 50 -15 5 12 9 198 10 412 0 412 9 601 42 880 156 1349 753 2591
1832 3810 161 182 590 616 777 786 1612 1466 3857 2728 6590 3704 3238 1156
6851 1831 10760 2009 724 34 1068 40 2000 40 932 0 1278 -6 1995 -39 3684
-170 7041 -766 10160 -1803 2546 -848 4649 -1903 6445 -3236 260 -193 393
-286 407 -286 17 0 -1 27 -104 154 -40 49 -70 92 -68 96 5 9 -249 214 -480
387 -2337 1750 -5683 3151 -9530 3988 -745 162 -1962 386 -2225 410 -41 4
-201 22 -355 40 -1391 168 -2419 261 -3580 325 -1038 56 -2151 78 -3215 63z"/>
<path d="M23980 35269 c-3267 -75 -6498 -514 -9192 -1248 -2769 -755 -5209
-1812 -7113 -3082 -710 -473 -1280 -942 -1891 -1553 -573 -574 -907 -985
-1231 -1516 -390 -640 -704 -1404 -792 -1925 -107 -638 -107 -1261 0 -1895 87
-519 383 -1252 762 -1885 264 -442 569 -840 995 -1300 l121 -130 -375 -3 -375
-2 30 -39 c17 -21 31 -43 31 -49 0 -16 93 -132 221 -276 348 -392 838 -831
1374 -1232 245 -183 563 -397 717 -482 29 -16 79 -43 110 -61 l57 -31 507 0
507 0 261 -149 c980 -558 2045 -1058 3186 -1496 1304 -501 2880 -977 4200
-1269 5080 -1123 10913 -1240 16170 -325 1684 293 3083 643 4615 1153 1665
555 3089 1179 4421 1937 l261 149 502 0 501 0 38 23 c20 13 57 35 82 49 155
84 460 292 730 496 671 508 1311 1113 1613 1524 l57 78 -359 2 -360 3 121 130
c314 340 606 700 792 980 364 547 638 1101 824 1665 88 267 108 344 141 540
107 634 107 1257 0 1895 -88 521 -402 1285 -792 1925 -324 531 -658 942 -1231
1516 -611 611 -1181 1080 -1891 1553 -1952 1302 -4441 2369 -7310 3135 -442
118 -714 184 -1105 271 -2288 506 -4720 809 -7260 905 -770 29 -1896 37 -2670
19z m-12155 -5009 c764 -50 1184 -194 1465 -504 216 -239 314 -524 313 -911
-2 -659 -283 -1381 -776 -1998 -319 -399 -747 -799 -1201 -1122 l-118 -85
-105 0 -105 0 -112 -69 c-280 -174 -637 -360 -901 -469 -144 -60 -455 -174
-542 -198 -84 -23 -116 -57 -117 -123 -1 -65 25 -100 90 -123 45 -16 149 -17
1336 -18 l1288 0 -10 -26 c-6 -14 -10 -27 -10 -30 0 -2 30 -4 66 -4 49 0 65
-3 61 -12 -8 -20 -375 -844 -462 -1035 l-78 -173 -2143 0 c-1179 0 -2144 4
-2144 8 0 7 187 466 426 1044 l69 168 68 0 c66 0 68 1 83 33 13 26 34 41 122
82 380 179 851 477 1315 834 l138 106 -91 5 -91 5 177 145 c1127 920 1755
1707 1894 2375 47 228 58 489 26 640 -55 254 -219 395 -462 395 l-72 0 -7 -87
c-19 -267 -84 -464 -221 -670 -142 -214 -407 -432 -636 -522 -152 -61 -235
-76 -423 -75 -156 0 -177 3 -260 28 -117 36 -228 94 -312 165 -269 226 -390
556 -339 924 74 522 326 894 741 1088 230 108 576 180 990 208 189 12 884 13
1070 1z m5805 -275 c0 -25 71 -465 166 -1035 63 -377 173 -1040 244 -1474 71
-433 131 -790 133 -793 3 -2 60 67 128 154 125 160 988 1260 1263 1608 143
182 209 266 738 935 128 163 287 366 353 453 l120 157 1287 0 c724 0 1288 -4
1288 -9 0 -4 -36 -120 -79 -257 -44 -137 -179 -573 -300 -969 -247 -809 -769
-2492 -888 -2865 l-78 -245 -65 -5 -64 -5 -54 -170 c-115 -364 -260 -831 -266
-857 l-6 -28 61 0 c60 0 61 -1 55 -24 -5 -21 -234 -775 -329 -1081 l-34 -110
-1021 -3 c-893 -2 -1022 0 -1022 13 0 12 88 298 316 1022 l57 182 65 3 65 3
19 55 c22 66 284 933 294 972 6 27 6 27 -54 30 l-60 3 115 380 c63 209 161
530 218 714 57 183 98 327 90 320 -7 -8 -204 -261 -439 -562 -234 -302 -481
-618 -549 -703 l-122 -154 -76 0 -76 0 -109 -137 c-154 -196 -665 -852 -692
-890 l-23 -33 75 0 76 0 -82 -107 c-136 -179 -260 -340 -567 -735 l-292 -378
-370 0 c-266 0 -369 3 -369 11 0 6 -16 111 -35 233 -45 287 -145 954 -145 967
0 5 27 9 61 9 l60 0 -6 48 c-13 94 -156 977 -161 995 -4 14 -17 17 -65 17 -32
0 -59 1 -59 3 0 1 -29 178 -64 392 -36 215 -85 525 -111 690 -25 165 -49 310
-53 323 -5 16 -19 -18 -55 -135 -76 -249 -272 -880 -338 -1085 l-60 -188 -63
0 -63 0 -25 -82 c-15 -46 -85 -270 -156 -498 -71 -228 -133 -430 -137 -447
l-7 -33 62 0 c54 0 61 -2 56 -17 -76 -255 -251 -830 -299 -988 l-64 -210
-1022 -3 c-930 -2 -1021 -1 -1021 14 0 16 66 229 247 799 52 165 102 324 111
353 l15 52 63 0 c62 0 64 1 77 33 12 29 97 303 255 827 l59 195 -59 3 c-32 2
-58 8 -58 13 0 33 656 2153 1153 3729 31 96 83 267 117 380 33 113 63 211 65
218 3 9 271 12 1295 12 709 0 1290 -2 1290 -5z m12853 -16 c192 -39 319 -108
459 -249 312 -315 457 -830 459 -1628 1 -539 -104 -876 -389 -1241 -279 -358
-710 -632 -1232 -781 -210 -60 -645 -141 -947 -176 l-152 -17 45 -56 c24 -31
85 -105 134 -166 l89 -110 -75 -3 -75 -3 63 -77 c90 -111 468 -568 631 -764
l139 -168 82 0 81 -1 85 -101 c301 -356 880 -1054 880 -1060 0 -5 -513 -8
-1139 -8 l-1139 0 -28 33 c-15 17 -172 190 -349 382 -177 193 -404 440 -504
550 l-182 200 75 3 c42 2 76 6 76 10 0 6 -306 339 -749 815 l-173 187 -83 0
-83 0 -95 101 -94 100 -61 -50 c-50 -42 -64 -60 -75 -99 l-14 -47 -63 -5 -63
-5 -14 -40 c-34 -98 -282 -897 -288 -929 l-7 -35 60 -3 59 -3 -114 -380 c-63
-209 -142 -470 -176 -580 l-62 -200 -1023 -3 c-748 -1 -1022 1 -1022 9 0 6 21
77 46 158 40 128 278 882 305 969 10 32 11 32 74 32 l63 0 16 43 c20 52 55
167 186 602 57 187 105 346 107 353 4 9 -11 12 -56 12 -34 0 -61 3 -61 6 0 31
461 1522 1000 3239 104 330 227 731 275 890 47 160 88 296 90 303 3 9 504 12
2456 12 2437 0 2451 0 2552 -21z m4552 -51 c-13 -40 -62 -192 -109 -338 -46
-146 -160 -510 -251 -810 -255 -836 -652 -2118 -837 -2705 -61 -192 -122 -388
-137 -435 l-27 -85 -62 -3 c-58 -3 -64 -5 -73 -30 -12 -31 -270 -852 -293
-929 l-15 -52 63 -3 63 -3 -108 -355 c-59 -195 -139 -456 -177 -580 l-69 -225
-1022 -3 c-920 -2 -1021 -1 -1021 14 0 17 213 702 321 1032 l41 122 64 0 63 0
42 133 c23 72 92 299 154 502 l111 370 -62 3 -62 3 13 42 c8 23 53 170 100
327 156 517 506 1643 880 2835 117 374 250 804 295 955 45 151 84 278 87 283
2 4 465 7 1028 7 l1023 0 -23 -72z m4850 62 c1072 -91 1746 -510 2048 -1275
133 -336 190 -760 167 -1247 -29 -651 -169 -1231 -425 -1765 l-74 -153 -68 0
-68 0 -54 -98 c-159 -285 -380 -593 -602 -837 l-63 -70 79 -5 80 -5 -175 -175
c-541 -540 -1163 -868 -1830 -966 -97 -14 -230 -18 -870 -21 -936 -6 -1205 6
-1575 68 -697 117 -1169 382 -1473 828 -55 80 -152 249 -152 264 0 4 29 7 65
7 l65 0 -16 38 c-94 215 -148 379 -178 542 -20 111 -46 326 -46 384 l0 46 -66
0 -67 0 6 313 c14 791 148 1344 485 2001 216 421 475 785 790 1107 536 550
1098 890 1642 993 74 14 151 27 170 29 86 9 2095 6 2205 -3z m-24025 -7356 c0
-3 -119 -376 -265 -829 -146 -454 -265 -829 -265 -835 0 -7 271 -10 856 -10
l855 0 -7 -22 c-27 -86 -312 -966 -344 -1061 l-39 -117 211 2 210 3 193 593
c106 326 194 595 197 597 3 3 174 4 380 3 l375 -3 -183 -575 c-100 -316 -185
-585 -189 -597 l-5 -23 422 0 423 0 119 396 c65 218 121 405 123 415 5 18 -3
19 -157 19 -125 0 -161 3 -158 13 3 6 31 89 63 184 l59 172 90 31 c126 44 266
111 340 164 144 102 273 277 420 566 l87 170 205 0 c191 0 205 -1 200 -17 -51
-168 -266 -896 -266 -903 0 -6 94 -10 255 -10 180 0 255 -3 255 -11 0 -22 -60
-135 -97 -184 -46 -59 -125 -116 -202 -146 -44 -17 -87 -23 -196 -28 l-140 -6
-76 -260 c-42 -143 -97 -329 -122 -412 l-45 -153 558 0 558 0 -31 88 c-29 80
-31 97 -31 222 -1 155 20 252 80 379 119 254 327 407 659 484 89 21 107 21
1533 24 1380 3 1443 3 1438 -14 -53 -175 -216 -726 -216 -729 0 -3 153 136
341 308 187 172 375 337 416 365 84 58 195 105 287 122 79 15 219 14 270 -1
62 -19 112 -75 126 -141 16 -77 4 -130 -85 -397 -41 -123 -73 -225 -71 -227 2
-2 148 133 326 299 177 167 356 326 397 355 133 92 257 128 415 121 116 -5
166 -28 208 -94 36 -57 46 -133 32 -223 -7 -37 -74 -262 -151 -501 l-139 -435
416 -3 c228 -1 416 -1 418 1 2 1 -8 32 -21 68 -108 300 7 698 262 900 130 103
247 157 441 201 l97 22 1413 3 c929 3 1412 0 1412 -6 0 -20 -44 -127 -67 -164
-52 -83 -164 -162 -258 -181 l-30 -6 3 -381 c1 -209 6 -378 11 -375 4 3 181
255 391 561 l384 556 1110 -3 1111 -3 100 -28 c207 -56 348 -151 411 -274 27
-54 29 -66 29 -174 0 -113 -1 -116 -38 -191 -25 -52 -57 -96 -99 -137 l-61
-61 -354 0 -353 0 14 33 c7 17 57 128 110 245 53 116 96 214 96 217 0 3 -96 5
-214 5 -196 0 -215 -2 -220 -17 -3 -10 -43 -140 -90 -289 -46 -150 -87 -290
-91 -312 -9 -58 9 -115 50 -151 71 -62 52 -61 990 -61 l852 0 179 600 179 600
382 0 382 0 -8 -27 c-39 -131 -344 -1148 -348 -1159 -4 -12 57 -14 421 -14
409 0 426 -1 426 -19 0 -36 -72 -162 -121 -211 -64 -64 -190 -126 -285 -140
-45 -7 -242 -10 -540 -8 -428 3 -473 5 -518 22 -95 36 -156 129 -156 240 l0
41 -31 -52 c-62 -107 -194 -201 -329 -234 -79 -20 -1446 -20 -1599 -1 -219 28
-397 92 -520 187 -101 77 -166 185 -197 324 -20 90 -15 294 10 386 20 72 74
188 116 250 l31 45 -283 0 -283 0 -444 -605 -445 -605 -418 0 -418 0 -4 23
c-3 12 -19 281 -36 597 -18 316 -34 578 -37 583 -5 8 -693 10 -693 2 0 -3 15
-25 34 -49 19 -25 47 -82 62 -128 26 -75 29 -95 29 -218 0 -110 -5 -150 -23
-213 -95 -331 -358 -548 -741 -612 -128 -22 -464 -16 -576 10 -239 54 -426
162 -526 304 l-42 60 -21 -62 c-59 -174 -169 -262 -360 -287 -39 -5 -272 -10
-517 -10 -369 0 -454 3 -496 15 -66 20 -144 89 -178 160 -44 90 -39 148 39
429 37 131 65 240 63 242 -2 2 -174 -154 -383 -347 -505 -467 -586 -522 -774
-523 -116 -1 -173 18 -224 74 -83 92 -76 172 42 530 50 148 88 270 86 270 -3
0 -194 -176 -427 -390 -446 -413 -471 -432 -583 -450 -60 -10 -487 -14 -496
-5 -3 3 73 265 169 583 95 317 176 587 179 600 l6 22 -496 0 -496 0 34 -45
c70 -91 111 -245 103 -385 -24 -424 -332 -735 -791 -799 -99 -14 -362 -14
-463 0 -102 14 -212 42 -293 75 -135 55 -276 165 -342 267 l-31 49 -22 -59
c-52 -145 -161 -243 -322 -290 -51 -15 -131 -17 -662 -21 -627 -3 -708 1 -780
38 -75 38 -121 114 -121 199 l0 34 -38 -59 c-69 -106 -186 -184 -307 -204 -81
-13 -962 -13 -1045 1 -119 19 -193 78 -207 164 l-6 36 -43 -46 c-82 -85 -182
-136 -304 -155 -87 -13 -471 -13 -546 1 -107 20 -185 76 -236 172 -20 37 -23
56 -23 162 l0 120 123 366 c67 201 122 369 122 372 0 4 -211 7 -469 7 l-470 0
-161 -492 c-88 -271 -178 -542 -198 -603 l-37 -110 -379 -3 c-301 -2 -377 0
-374 10 14 36 388 1187 388 1192 0 3 -141 6 -314 6 l-314 0 -105 -132 c-339
-430 -643 -724 -975 -946 -223 -148 -464 -252 -702 -303 -136 -29 -414 -32
-526 -6 -262 60 -432 197 -490 392 -26 87 -24 237 5 340 93 335 447 653 925
830 359 133 697 185 1260 194 l369 6 631 837 631 838 508 0 c279 0 507 -3 507
-6z m19795 -203 c166 -59 301 -204 350 -376 23 -79 23 -221 0 -300 -37 -129
-113 -234 -222 -308 -93 -64 -167 -89 -283 -94 -176 -9 -303 40 -425 162 -82
81 -130 165 -150 262 -43 200 8 377 150 518 77 77 160 127 251 150 84 21 250
14 329 -14z m-6567 -480 c-1 -5 -145 -167 -318 -360 l-315 -350 -162 0 -163
-1 53 98 c28 54 115 216 192 360 l139 262 289 0 c169 0 287 -4 285 -9z m8552
-293 c104 -31 191 -97 230 -175 20 -38 26 -67 28 -138 5 -106 -9 -176 -51
-265 l-30 -64 31 -91 c16 -49 59 -175 95 -280 68 -199 111 -372 122 -490 12
-126 -22 -250 -92 -342 -18 -24 -33 -45 -33 -48 0 -3 185 -5 410 -5 l410 0 0
-24 c0 -13 -7 -42 -15 -65 -46 -133 -203 -247 -380 -277 -71 -13 -227 -14
-962 -12 -802 4 -883 5 -938 21 -87 26 -142 56 -182 100 -52 58 -66 99 -66
199 0 78 3 93 32 153 48 97 134 155 261 177 61 11 83 10 155 -5 133 -27 299
-105 468 -219 31 -21 62 -36 67 -33 17 10 59 89 81 151 37 107 30 189 -37 413
l-26 84 -116 -116 -117 -117 -214 0 -213 0 277 282 c182 186 275 288 271 298
-2 8 -17 47 -31 85 -17 43 -29 99 -32 145 l-5 75 257 302 c283 332 254 308
345 281z"/>
<path d="M8237 24538 c-3 -7 -44 -109 -91 -227 -48 -117 -84 -216 -81 -219 3
-3 5 0 5 6 0 7 9 12 19 12 11 0 22 4 26 9 3 6 26 13 50 17 25 3 45 10 45 15 0
5 11 9 25 9 14 0 28 7 31 15 4 8 19 15 34 15 16 0 32 5 35 10 3 6 20 10 36 10
22 0 32 7 41 25 10 22 17 25 68 25 51 0 59 3 89 34 l34 35 -27 7 c-21 5 -24 9
-15 20 9 11 6 14 -20 14 -18 0 -30 4 -26 9 3 5 -5 11 -17 13 -13 2 -22 9 -20
16 1 7 -10 12 -29 12 -27 0 -30 2 -19 15 11 13 8 15 -14 15 -16 0 -25 4 -21
10 3 6 -2 13 -12 17 -10 4 -41 22 -70 40 -57 36 -68 39 -76 21z"/>
<path d="M12226 24473 c-15 -4 -16 -7 -5 -14 9 -6 -7 -9 -46 -9 -59 -1 -59 -1
-30 -15 26 -11 -84 -14 -785 -17 l-815 -3 685 -5 685 -5 -556 -3 c-624 -2
-1089 -13 -1044 -23 18 -4 -17 -7 -85 -9 -106 -1 -113 -3 -85 -15 l30 -14 -50
-1 c-27 -1 -68 -4 -90 -8 l-40 -7 30 -13 c116 -46 101 -46 1133 -49 972 -4
973 -4 981 -24 6 -17 18 4 64 105 31 69 57 128 57 131 0 5 -5 5 -34 -2z"/>
<path d="M13462 24428 c-46 -141 -92 -295 -92 -307 0 -6 7 -11 15 -11 8 0 15
4 15 9 0 5 20 12 45 15 25 4 45 11 45 17 0 5 11 9 25 9 14 0 28 7 31 15 4 9
19 15 35 15 16 0 29 5 29 10 0 6 13 10 30 10 23 0 31 5 36 25 6 23 11 25 58
25 51 0 53 1 63 35 10 33 10 35 -14 41 -15 4 -22 12 -19 20 4 10 -2 14 -19 14
-14 0 -25 4 -25 9 0 5 -11 12 -25 15 -14 4 -23 11 -20 16 4 6 -7 10 -24 10
-23 0 -29 4 -25 15 4 10 0 15 -14 15 -11 0 -22 7 -26 15 -3 8 -11 15 -18 15
-7 0 -24 9 -38 20 -14 11 -28 20 -32 20 -3 0 -20 -42 -36 -92z"/>
<path d="M19744 24503 c-3 -10 -10 -29 -14 -43 -21 -58 -100 -329 -100 -339 0
-6 7 -11 15 -11 8 0 15 4 15 9 0 6 20 13 45 17 25 3 45 10 45 15 0 5 11 9 24
9 13 0 26 7 30 15 3 9 18 15 36 15 16 0 30 5 30 10 0 6 13 10 30 10 23 0 31 5
36 25 6 23 11 25 58 25 51 0 53 1 63 35 10 33 10 35 -14 41 -15 4 -22 12 -19
20 4 10 -2 14 -19 14 -14 0 -25 4 -25 9 0 5 -10 11 -22 13 -13 2 -22 9 -20 16
1 7 -10 12 -28 12 -22 0 -28 4 -24 15 5 11 -1 15 -21 15 -14 0 -23 4 -20 10 3
5 -10 16 -28 24 -19 8 -38 19 -41 25 -11 16 -26 13 -32 -6z"/>
<path d="M16736 24452 c3 -20 16 -98 27 -172 20 -125 24 -135 45 -138 12 -2
22 1 22 7 0 6 9 11 20 11 11 0 20 7 20 15 0 9 9 15 25 15 14 0 25 5 25 10 0 6
14 10 30 10 27 0 30 2 24 25 -6 24 -4 25 43 25 l49 0 -4 34 c-3 29 -9 36 -33
41 -16 4 -29 13 -29 21 0 8 -10 14 -25 14 -14 0 -25 5 -25 10 0 6 -9 10 -19
10 -11 0 -26 7 -35 15 -8 8 -26 15 -40 15 -16 0 -26 6 -26 15 0 9 -9 15 -25
15 -14 0 -25 4 -25 8 0 5 -11 14 -25 20 -25 12 -25 11 -19 -26z"/>
<path d="M15157 24356 c-3 -8 -19 -17 -36 -21 -17 -4 -31 -12 -31 -18 0 -7 -3
-22 -6 -34 -6 -22 -3 -23 44 -23 l50 0 16 47 c9 26 16 50 16 55 0 14 -48 9
-53 -6z"/>
<path d="M18101 24356 c-6 -8 -31 -17 -54 -20 -32 -5 -47 -14 -65 -39 l-22
-32 36 -3 c41 -4 49 1 93 63 30 42 38 63 12 31z"/>
<path d="M21420 24355 c0 -8 -8 -15 -18 -15 -27 0 -50 -21 -58 -53 l-6 -28 52
3 53 3 13 45 c18 60 18 60 -11 60 -16 0 -25 -6 -25 -15z"/>
<path d="M27007 28313 c-2 -5 -55 -172 -117 -373 -62 -201 -195 -630 -296
-955 -101 -324 -182 -590 -180 -592 1 -2 94 106 206 240 112 133 319 378 458
545 l255 302 870 0 c656 0 880 3 911 12 69 21 127 88 165 193 47 131 55 175
55 335 1 208 -25 268 -126 289 -57 13 -2194 16 -2201 4z"/>
<path d="M23899 24444 c-20 -54 -110 -356 -106 -360 6 -7 77 9 77 17 0 5 9 9
19 9 11 0 23 5 26 10 3 6 17 10 31 10 13 0 24 5 24 10 0 6 14 10 30 10 20 0
30 5 30 15 0 10 10 15 31 15 22 0 32 5 36 20 4 17 14 20 58 20 47 0 53 2 59
24 3 13 9 31 12 40 5 12 0 16 -21 16 -20 0 -26 4 -21 15 4 11 -1 15 -19 15
-14 0 -25 4 -25 9 0 5 -11 12 -25 15 -14 4 -23 11 -20 16 4 6 -7 10 -24 10
-23 0 -29 4 -25 15 4 10 0 15 -15 15 -12 0 -21 5 -21 10 0 6 -7 10 -15 10 -8
0 -24 9 -35 20 -27 27 -49 25 -61 -6z"/>
<path d="M29680 24395 c11 -13 8 -15 -18 -15 -17 0 -32 -6 -36 -15 -3 -8 -15
-15 -26 -15 -12 0 -18 -4 -15 -10 4 -6 -5 -10 -20 -10 -20 0 -26 -4 -22 -14 4
-11 -3 -16 -26 -18 l-31 -3 33 -37 c32 -37 35 -38 100 -38 55 0 71 -4 86 -20
12 -13 31 -20 55 -20 24 0 40 -5 44 -15 3 -9 18 -15 40 -15 19 0 38 -4 41 -10
6 -10 65 -15 65 -5 0 3 -50 66 -111 140 -98 118 -116 135 -142 135 -25 0 -28
-2 -17 -15z"/>
<path d="M27775 24328 c142 -151 171 -178 188 -178 16 0 17 3 7 15 -11 13 -7
15 25 15 37 0 38 0 20 20 -18 20 -17 20 55 20 l74 0 -39 40 c-33 34 -45 40
-81 40 -28 0 -44 5 -48 15 -3 10 -19 15 -45 15 -22 0 -43 5 -46 10 -3 6 -18
10 -33 10 -15 0 -40 7 -56 15 -15 8 -38 15 -49 15 -18 0 -13 -8 28 -52z"/>
<path d="M25576 24315 c-3 -8 -16 -15 -30 -15 -18 0 -27 -8 -35 -31 -16 -47
-15 -49 38 -49 l49 0 16 47 c9 26 16 50 16 55 0 14 -48 8 -54 -7z"/>
<path d="M31382 24303 c-74 -244 -71 -227 -31 -218 19 4 38 11 44 16 5 5 17 9
27 9 10 0 18 5 18 10 0 6 11 10 24 10 14 0 28 5 31 10 3 6 17 10 31 10 14 0
27 7 30 15 4 8 19 15 34 15 20 0 31 6 35 20 5 17 15 20 59 20 l54 0 10 40 c9
38 9 40 -14 40 -15 0 -24 6 -24 15 0 8 -9 15 -20 15 -11 0 -20 4 -20 9 0 5
-10 11 -22 13 -13 2 -22 9 -20 16 1 7 -10 12 -29 12 -24 0 -30 4 -25 15 4 11
-2 15 -20 15 -14 0 -22 4 -19 10 3 6 -1 10 -10 10 -9 0 -25 9 -37 20 -44 41
-52 31 -106 -147z"/>
<path d="M33106 24315 c-3 -8 -17 -15 -31 -15 -18 0 -28 -7 -35 -26 -18 -48
-14 -54 40 -54 l49 0 16 52 c8 28 15 53 15 55 0 11 -49 0 -54 -12z"/>
<path d="M37991 28279 c-280 -73 -652 -370 -940 -749 -170 -225 -242 -359
-325 -601 -115 -337 -130 -516 -70 -824 24 -121 99 -338 158 -458 l53 -107
-64 0 c-34 0 -63 -4 -63 -8 0 -14 69 -124 127 -202 128 -171 308 -312 461
-363 119 -39 223 -46 696 -47 493 0 522 4 704 96 187 96 477 303 642 461 l65
62 -84 1 -84 0 149 153 c235 240 313 346 437 592 75 149 144 341 166 460 6 33
16 151 21 262 20 388 -21 697 -119 891 -83 164 -229 298 -387 353 -136 47
-167 49 -837 48 -593 0 -637 -1 -706 -20z"/>
<path d="M35059 24378 c51 -81 220 -288 196 -240 -4 8 2 12 19 12 18 0 24 4
20 15 -5 11 2 15 26 15 32 0 33 0 15 20 -18 20 -17 20 43 20 34 0 62 2 62 6 0
3 -12 21 -27 40 -21 26 -36 34 -59 34 -17 0 -37 7 -44 15 -7 8 -25 15 -41 15
-16 0 -29 5 -29 10 0 6 -10 10 -23 10 -13 0 -32 7 -43 15 -10 8 -31 15 -45 15
-15 0 -32 7 -39 15 -7 8 -21 15 -32 15 -20 0 -20 0 1 -32z"/>
<path d="M40499 24313 c-13 -16 -12 -17 4 -4 9 7 17 15 17 17 0 8 -8 3 -21
-13z"/>
<path d="M40350 24260 l-45 -40 46 0 c40 0 52 5 90 40 l44 39 -45 0 c-38 0
-52 -6 -90 -39z"/>
<path d="M14550 21592 c-239 -338 -439 -621 -443 -629 -7 -11 33 -13 221 -13
l228 0 217 627 c119 344 216 627 215 629 -2 1 -199 -275 -438 -614z"/>
<path d="M13080 20570 c-510 -28 -826 -145 -1015 -377 -114 -139 -154 -311
-98 -419 54 -105 219 -109 428 -10 260 123 622 434 832 716 34 47 63 88 63 93
0 8 -9 8 -210 -3z"/>
<path d="M21296 20270 c-54 -170 -100 -328 -103 -350 -7 -54 20 -124 60 -154
49 -37 123 -57 234 -63 l101 -6 51 159 c189 599 221 700 221 712 0 9 -53 12
-233 12 l-233 0 -98 -310z"/>
<path d="M28037 20573 c-3 -5 -49 -145 -102 -313 -108 -340 -116 -388 -77
-452 42 -68 178 -113 318 -106 l58 3 138 435 c76 239 138 436 138 438 0 6
-469 1 -473 -5z"/>
<path d="M46820 26865 c0 -5 5 -17 10 -25 5 -8 10 -10 10 -5 0 6 -5 17 -10 25
-5 8 -10 11 -10 5z"/>
<path d="M46841 26816 c-1 -4 15 -58 33 -120 190 -611 285 -1332 241 -1831
-67 -778 -244 -1465 -561 -2172 -501 -1119 -1349 -2195 -2524 -3203 -1259
-1079 -2872 -2047 -4750 -2850 -3580 -1531 -7945 -2436 -12630 -2620 -847 -33
-2417 -38 -3155 -11 -1136 43 -1985 100 -2945 197 -4005 404 -7668 1350
-10685 2759 -1152 538 -2134 1107 -3100 1795 -227 162 -772 565 -905 669 -90
71 -327 281 -494 439 -78 74 -60 54 49 -54 266 -265 555 -520 912 -805 3174
-2536 8278 -4331 14083 -4954 1669 -179 3235 -255 4985 -242 893 7 1345 20
2115 63 6900 378 13062 2377 16615 5389 571 484 1129 1057 1542 1585 998 1277
1513 2649 1513 4035 0 601 -103 1237 -294 1807 -24 73 -45 129 -45 124z"/>
</g>
</svg>
