<?xml version="1.0" standalone="no"?>
<!DOCTYPE svg PUBLIC "-//W3C//DTD SVG 20010904//EN"
 "http://www.w3.org/TR/2001/REC-SVG-20010904/DTD/svg10.dtd">
<svg version="1.0" xmlns="http://www.w3.org/2000/svg"
 width="512.000000pt" height="512.000000pt" viewBox="0 0 512.000000 512.000000"
 preserveAspectRatio="xMidYMid meet">

<g transform="translate(0.000000,512.000000) scale(0.100000,-0.100000)"
fill="#000000" stroke="none">
<path d="M749 4654 c-104 -32 -188 -113 -230 -221 -30 -79 -30 -229 0 -323 47
-147 69 -173 643 -799 l543 -590 242 241 242 242 -23 31 c-12 16 -208 294
-435 617 -447 636 -483 680 -617 750 -121 64 -262 84 -365 52z m266 -109 c84
-22 150 -61 207 -124 l50 -55 -39 -33 c-21 -18 -50 -42 -65 -54 l-27 -20 -22
43 c-28 55 -136 162 -218 216 l-63 42 59 0 c32 0 85 -7 118 -15z"/>
<path d="M3701 4444 c-72 -26 -109 -55 -251 -198 l-135 -136 358 -358 358
-357 144 146 c158 159 189 207 201 310 4 40 1 73 -11 115 -16 56 -26 68 -213
255 -109 108 -213 205 -232 215 -49 24 -163 29 -219 8z"/>
<path d="M1972 2767 l-1222 -1222 358 -358 357 -357 1225 1225 1225 1225 -255
255 -255 255 -1162 -1162 -1163 -1163 -52 53 -53 52 1163 1163 1162 1162 -48
48 c-26 26 -50 47 -52 47 -3 0 -555 -550 -1228 -1223z"/>
<path d="M2778 1923 l-177 -178 180 -195 c100 -107 217 -239 260 -293 96 -116
119 -135 155 -119 50 23 264 204 270 229 8 31 -6 57 -75 141 -31 37 -138 184
-239 327 -101 143 -187 261 -190 263 -4 1 -87 -78 -184 -175z"/>
<path d="M527 964 c-64 -258 -115 -469 -114 -470 1 0 212 52 470 115 l467 116
-354 354 -354 354 -115 -469z"/>
<path d="M3625 1237 c-125 -32 -275 -128 -341 -218 -119 -163 -90 -310 79
-403 66 -36 209 -86 320 -111 275 -63 714 -72 949 -19 121 28 101 39 -82 48
-283 14 -361 82 -468 403 -56 166 -104 234 -199 279 -67 31 -181 41 -258 21z"/>
</g>
</svg>
