<?xml version="1.0" standalone="no"?>
<!DOCTYPE svg PUBLIC "-//W3C//DTD SVG 20010904//EN"
 "http://www.w3.org/TR/2001/REC-SVG-20010904/DTD/svg10.dtd">
<svg version="1.0" xmlns="http://www.w3.org/2000/svg"
 width="980.000000pt" height="982.000000pt" viewBox="0 0 980.000000 982.000000"
 preserveAspectRatio="xMidYMid meet">

<g transform="translate(0.000000,982.000000) scale(0.100000,-0.100000)"
fill="#000000" stroke="none">
<path d="M8557 9790 c-376 -47 -896 -155 -1137 -235 -111 -37 -110 -36 -64
-91 70 -86 657 -684 1408 -1433 705 -705 735 -734 745 -709 50 132 141 474
190 714 89 435 105 634 98 1194 -6 445 -12 510 -52 536 -39 26 -168 34 -610
39 -380 4 -447 2 -578 -15z"/>
<path d="M6758 9282 c-220 -112 -340 -183 -551 -324 -1078 -720 -2230 -1999
-3093 -3433 -287 -478 -600 -1094 -940 -1849 l-63 -139 18 -26 c11 -14 326
-335 700 -713 l682 -687 42 18 c365 157 1188 557 1527 742 814 444 1707 1072
2325 1634 443 403 898 875 1198 1240 274 334 452 604 665 1010 l115 220 -1129
1123 c-621 619 -1168 1160 -1216 1204 l-87 79 -193 -99z m377 -1366 c309 -66
570 -273 696 -551 263 -581 -51 -1234 -668 -1387 -125 -31 -331 -31 -456 0
-312 77 -563 289 -684 574 -227 540 53 1154 612 1338 151 50 342 60 500 26z"/>
<path d="M6785 7547 c-226 -58 -419 -262 -456 -480 -14 -87 -7 -250 16 -324
33 -109 151 -252 270 -328 108 -68 147 -79 300 -83 122 -3 148 -1 202 17 95
32 181 87 258 166 127 129 173 239 174 416 2 179 -47 303 -167 430 -80 86
-164 143 -251 170 -83 26 -272 35 -346 16z"/>
<path d="M2140 6364 c-849 -828 -2000 -1990 -2064 -2083 -19 -26 -26 -45 -20
-51 32 -32 1712 -586 1838 -607 l32 -5 159 349 c347 758 692 1413 1060 2012
74 122 148 247 163 277 26 53 26 56 9 69 -36 26 -778 342 -827 351 -22 5 -65
-33 -350 -312z"/>
<path d="M6255 3328 c-22 -12 -112 -67 -200 -123 -332 -211 -662 -399 -1099
-628 -350 -183 -973 -479 -1236 -588 -69 -29 -116 -54 -118 -63 -6 -27 192
-638 443 -1366 162 -471 173 -500 189 -500 30 0 213 175 955 914 952 948 1481
1491 1481 1518 0 44 -355 861 -373 858 -1 -1 -20 -10 -42 -22z"/>
<path d="M1575 3299 c-134 -19 -354 -97 -492 -175 -337 -188 -742 -692 -1014
-1259 -37 -77 -65 -142 -64 -143 2 -2 86 33 187 78 342 154 525 211 679 211
204 1 269 -93 224 -326 -43 -228 -193 -585 -383 -915 -34 -57 -59 -106 -57
-108 2 -2 41 19 88 46 458 271 954 449 1123 403 209 -56 185 -340 -77 -920
-44 -96 -77 -177 -74 -180 11 -11 332 161 565 302 437 266 740 569 890 890 80
170 114 311 131 536 l12 153 -709 709 -709 709 -130 -1 c-71 -1 -157 -5 -190
-10z"/>
</g>
</svg>
