<?xml version="1.0" standalone="no"?>
<!DOCTYPE svg PUBLIC "-//W3C//DTD SVG 20010904//EN"
 "http://www.w3.org/TR/2001/REC-SVG-20010904/DTD/svg10.dtd">
<svg version="1.0" xmlns="http://www.w3.org/2000/svg"
 width="960.000000pt" height="854.000000pt" viewBox="0 0 960.000000 854.000000"
 preserveAspectRatio="xMidYMid meet">

<g transform="translate(0.000000,854.000000) scale(0.100000,-0.100000)"
fill="#000000" stroke="none">
<path d="M4830 7734 c-84 -15 -159 -47 -250 -105 -8 -5 -27 -15 -41 -22 -15
-7 -67 -49 -115 -93 -169 -155 -152 -144 -236 -144 -72 0 -177 -29 -186 -52
-2 -4 -9 -8 -16 -8 -26 0 -116 -102 -191 -216 -85 -128 -91 -136 -151 -203
-73 -83 -102 -126 -113 -169 -9 -31 -17 -42 -31 -42 -10 0 -32 -5 -47 -11 -46
-19 -66 -26 -103 -39 -19 -7 -54 -21 -77 -31 -24 -11 -46 -19 -49 -19 -11 0
-235 -112 -289 -144 -58 -34 -158 -99 -165 -106 -3 -3 -30 -22 -60 -43 -30
-20 -69 -50 -87 -65 -18 -15 -49 -40 -70 -57 -59 -47 -275 -265 -319 -320 -21
-28 -45 -57 -51 -65 -126 -150 -303 -456 -380 -655 -52 -135 -123 -367 -123
-404 0 -28 -8 -26 -50 10 -48 43 -133 81 -245 110 -55 14 -293 19 -364 7 -67
-12 -148 -56 -171 -93 -39 -62 -49 -125 -60 -350 -12 -252 -29 -485 -35 -495
-3 -4 -12 -90 -20 -191 -9 -101 -20 -211 -26 -244 -62 -365 -63 -837 -2 -1150
8 -44 19 -107 24 -140 11 -69 42 -171 71 -231 44 -91 156 -164 251 -164 48 0
170 37 210 63 14 9 29 17 33 17 21 0 311 230 403 320 14 14 58 52 96 85 39 33
72 62 75 65 3 3 41 37 85 75 43 39 102 91 130 117 27 26 53 48 57 48 4 0 13 6
20 13 66 65 481 298 673 377 11 4 41 17 66 29 26 11 60 23 75 27 16 4 34 10
39 14 12 9 278 99 380 128 39 11 104 23 145 27 41 4 102 13 135 20 49 11 117
23 180 30 113 13 171 19 275 31 146 16 583 19 710 4 47 -6 126 -15 175 -20 50
-5 101 -12 115 -15 14 -3 63 -10 109 -15 47 -6 88 -13 92 -16 4 -2 54 -8 111
-14 174 -16 232 -26 538 -92 80 -17 177 -36 215 -43 39 -7 104 -20 145 -29 41
-9 100 -21 130 -27 30 -6 66 -15 80 -19 14 -4 52 -14 85 -21 33 -7 67 -16 76
-20 9 -5 29 -10 45 -13 31 -6 185 -52 219 -66 21 -9 62 -22 80 -26 17 -3 178
-55 215 -69 37 -14 361 -117 445 -142 28 -8 66 -21 85 -28 19 -7 89 -30 155
-51 66 -21 125 -40 130 -44 6 -4 46 -19 90 -34 44 -15 89 -32 100 -38 33 -18
178 -70 210 -75 47 -7 122 32 189 101 34 33 68 70 76 81 67 89 119 185 160
295 59 163 64 289 13 380 -17 30 -27 36 -64 41 -52 7 -95 23 -209 76 -47 22
-119 52 -160 68 -41 15 -82 31 -90 35 -9 4 -110 44 -225 89 -116 45 -219 86
-230 91 -11 5 -49 19 -85 31 -36 12 -128 44 -205 71 -77 27 -183 63 -235 79
-52 17 -111 37 -130 44 -19 8 -62 21 -95 31 -33 9 -100 30 -150 46 l-90 28 3
153 c5 212 -16 410 -67 637 -18 83 -23 99 -55 205 -46 154 -166 424 -242 542
-19 29 -34 56 -34 58 0 21 -200 282 -292 381 l-80 86 51 29 c242 131 387 334
347 485 -21 79 -66 156 -154 264 -95 116 -148 211 -168 300 -21 92 -67 206
-99 243 -46 53 -108 81 -210 95 -159 22 -289 47 -320 61 -11 5 -38 17 -60 27
-55 24 -208 98 -225 109 -33 21 -130 58 -210 80 -82 23 -255 39 -310 29z m249
-80 c53 -9 106 -22 118 -30 12 -8 27 -14 34 -14 14 0 77 -29 109 -50 31 -21
146 -84 223 -122 47 -24 81 -31 200 -43 78 -8 158 -19 178 -24 89 -21 187 -89
232 -161 36 -57 47 -100 47 -182 l0 -78 -104 0 c-89 0 -202 -13 -213 -24 -2
-2 -1 -10 2 -18 4 -11 40 -18 148 -27 78 -7 162 -17 187 -23 129 -32 190 -102
190 -218 0 -51 6 -73 36 -131 33 -64 36 -75 32 -139 -3 -63 -7 -73 -38 -106
-67 -70 -233 -121 -426 -131 -154 -8 -160 -6 -167 61 -10 96 -74 177 -172 219
-50 21 -130 42 -260 68 -55 10 -124 26 -154 35 -62 18 -191 34 -191 23 0 -9
61 -24 200 -49 170 -30 262 -53 317 -76 17 -8 35 -14 40 -14 4 0 30 -16 57
-35 81 -58 116 -123 116 -220 0 -101 -38 -169 -118 -209 -82 -41 -184 -50
-637 -51 -428 -2 -454 -4 -545 -42 -19 -9 -51 -22 -70 -30 -19 -8 -44 -19 -55
-24 -48 -21 -116 -39 -125 -34 -6 3 -10 18 -10 33 0 15 -7 50 -16 77 -9 28
-16 86 -17 130 -1 68 3 87 25 130 33 62 140 175 166 175 5 0 17 8 28 18 26 23
126 71 184 87 68 19 134 65 111 79 -10 6 -282 -81 -312 -100 -7 -5 -34 -18
-59 -30 -57 -26 -150 -118 -150 -146 0 -17 -84 -68 -112 -68 -47 0 -124 46
-207 123 -42 40 -95 81 -116 92 -124 62 -166 133 -135 229 37 117 52 164 60
181 107 255 252 437 390 488 57 21 172 22 260 2 167 -37 236 -45 386 -45 157
0 241 12 344 48 l44 15 -34 26 c-31 25 -40 26 -164 27 -91 2 -159 8 -224 23
-51 11 -134 23 -185 27 -50 4 -100 11 -110 16 -16 8 -15 12 10 44 33 40 133
108 218 148 33 15 72 34 86 41 14 8 57 19 94 25 38 6 71 13 74 16 9 9 86 4
180 -12z m1211 -734 c0 -5 -4 -10 -10 -10 -5 0 -10 5 -10 10 0 6 5 10 10 10 6
0 10 -4 10 -10z m-614 -1062 c4 -4 3 -31 -2 -60 l-9 -53 -110 -7 c-115 -7
-155 -17 -218 -57 -43 -26 -42 -39 0 -24 15 6 48 16 73 23 25 7 55 16 68 21
33 13 146 11 177 -3 14 -6 27 -21 30 -32 2 -12 9 -46 15 -76 7 -30 18 -82 25
-115 22 -104 40 -274 29 -285 -5 -5 -44 -14 -85 -20 -78 -11 -171 -52 -234
-104 l-30 -24 26 -29 c23 -26 34 -40 81 -112 27 -40 23 -95 -8 -120 -37 -29
-100 -44 -162 -38 -125 13 -229 96 -344 275 -10 15 -21 34 -24 42 -4 8 -17 38
-30 66 -12 28 -28 76 -35 107 -8 31 -17 57 -21 57 -4 0 -22 -9 -40 -20 -18
-11 -40 -20 -49 -20 -22 0 -64 49 -78 89 -16 49 -14 228 5 308 21 91 41 123
76 123 15 0 28 -3 28 -8 0 -4 10 -18 23 -32 12 -14 27 -36 34 -50 16 -33 53
-150 53 -167 0 -12 13 -13 68 -8 37 4 70 9 75 12 4 2 7 65 7 139 0 94 4 145
14 169 l15 34 143 4 c219 5 406 3 414 -5z m-1061 -309 c2 -127 38 -287 76
-327 19 -22 30 -25 102 -37 32 -5 40 -12 49 -38 18 -53 93 -191 152 -279 58
-88 59 -108 7 -108 -15 0 -52 -7 -82 -15 -113 -32 -166 -48 -219 -65 -94 -30
-123 -38 -192 -51 l-68 -13 -82 90 c-113 121 -178 186 -211 209 -53 37 -67 52
-69 75 -3 23 19 38 144 94 75 34 112 80 187 230 34 69 74 137 87 153 14 15 41
47 61 71 39 46 58 50 58 11z m-2350 -129 c40 -20 71 -62 60 -81 -12 -18 -64
-9 -89 16 -73 73 -178 -26 -145 -136 7 -23 23 -48 35 -56 44 -29 134 -11 134
27 0 17 -7 20 -40 20 -38 0 -40 2 -40 30 l0 30 78 0 78 0 -4 -67 c-4 -81 -15
-93 -95 -113 -46 -11 -64 -11 -102 0 -106 30 -155 162 -99 270 38 74 143 102
229 60z m362 4 c30 -8 56 -67 49 -110 -7 -33 -56 -81 -70 -67 -3 3 -6 2 -6 -4
0 -6 7 -17 16 -24 9 -7 34 -39 55 -71 l40 -58 -44 0 c-43 0 -45 1 -92 70 -41
59 -53 70 -77 70 l-28 0 0 -70 0 -70 -35 0 -35 0 0 177 0 176 103 -6 c56 -4
112 -9 124 -13z m186 -117 c2 -95 6 -131 17 -141 32 -31 104 -20 114 16 3 13
6 76 6 141 l0 118 33 -3 32 -3 -1 -130 c0 -168 -4 -181 -57 -205 -77 -35 -161
-17 -197 43 -17 27 -20 50 -20 158 0 69 3 129 7 133 4 4 20 6 35 4 l28 -3 3
-128z m499 105 c18 -10 33 -31 40 -56 10 -33 9 -43 -8 -74 -25 -47 -55 -62
-126 -62 l-58 0 0 -65 0 -65 -35 0 -35 0 0 176 0 177 96 -7 c63 -4 107 -13
126 -24z m322 14 c99 -41 129 -208 53 -290 -78 -82 -225 -66 -272 31 -20 41
-20 145 1 189 33 70 138 104 218 70z m379 -538 c75 -49 280 -219 323 -267 30
-33 31 -36 17 -58 -9 -13 -21 -23 -28 -23 -7 0 -24 -9 -39 -21 -14 -11 -42
-25 -62 -31 -34 -9 -37 -8 -82 39 -26 27 -67 64 -92 83 -25 19 -47 37 -50 40
-3 3 -32 29 -66 58 -33 29 -75 71 -91 95 l-31 43 31 24 c17 14 40 35 51 48 24
27 37 24 119 -30z m-130 -206 c73 -71 170 -164 216 -208 46 -43 89 -84 96 -90
8 -9 30 -2 88 26 127 64 184 82 210 69 51 -27 175 -179 162 -199 -3 -4 -58
-11 -122 -15 -65 -3 -179 -12 -253 -20 -74 -7 -178 -16 -230 -20 -52 -3 -113
-10 -135 -15 -22 -5 -67 -13 -100 -19 -33 -6 -96 -18 -140 -27 -44 -9 -100
-20 -125 -25 -25 -5 -63 -13 -85 -18 -22 -5 -75 -16 -118 -25 -44 -9 -83 -19
-89 -22 -5 -3 -51 -17 -101 -30 -118 -30 -191 -51 -357 -107 -124 -41 -342
-107 -356 -107 -8 0 -2 26 26 115 12 39 30 99 40 135 75 272 172 440 286 498
21 11 75 25 119 32 44 6 127 20 185 31 58 10 139 24 180 29 181 24 353 75 415
124 11 8 28 16 38 16 10 0 78 -58 150 -128z m1198 -11 c14 -15 31 -90 25 -109
-5 -16 -18 -22 -54 -27 -76 -11 -191 -45 -237 -71 -24 -13 -64 -31 -90 -40
l-47 -16 -30 29 c-16 15 -38 40 -49 54 l-19 26 58 36 c85 52 158 82 242 101
41 10 89 21 105 25 30 8 85 4 96 -8z m229 -281 c8 -9 39 -35 68 -59 28 -23 52
-49 52 -56 0 -9 -35 -14 -132 -19 -421 -20 -515 -19 -525 10 -2 6 36 32 84 59
49 27 104 57 123 68 44 25 138 76 169 93 22 12 29 9 85 -34 34 -26 68 -54 76
-62z m56 -260 c53 0 54 -1 54 -28 0 -106 -148 -238 -323 -286 l-57 -17 27 -23
c40 -35 19 -56 -57 -56 -83 0 -180 -12 -180 -21 0 -5 7 -9 15 -9 20 0 138 -63
185 -98 62 -46 111 -101 131 -148 28 -63 22 -72 -43 -67 -173 12 -331 73 -431
166 -31 29 -57 56 -57 60 0 3 -13 28 -30 55 l-29 48 -148 -12 c-81 -7 -168
-17 -193 -23 -25 -6 -62 -11 -82 -11 -42 0 -68 -8 -68 -21 0 -5 10 -9 23 -9
20 0 134 -42 197 -72 34 -17 167 -106 174 -116 10 -17 -14 -35 -60 -44 -86
-17 -324 -21 -382 -7 -29 7 -55 16 -58 21 -3 4 -12 8 -21 8 -36 0 -143 86
-199 161 l-19 25 -95 -13 c-100 -15 -140 -12 -140 11 0 16 44 41 91 51 44 10
117 54 196 120 38 31 74 61 81 66 57 46 187 112 282 142 25 8 61 20 80 26 113
39 202 52 215 31 4 -6 4 -30 0 -53 -10 -61 -88 -134 -199 -187 -47 -22 -86
-42 -86 -44 0 -5 17 -4 240 14 133 10 280 27 331 36 18 3 31 16 42 43 49 110
230 234 382 261 39 7 84 16 100 20 17 5 36 6 43 4 8 -2 38 -4 68 -4z m872
-178 c10 -7 9 -18 -6 -53 -24 -54 -62 -88 -150 -136 -109 -58 -152 -84 -152
-93 0 -7 69 -16 195 -26 33 -2 69 -7 81 -9 12 -3 43 9 75 28 139 82 274 117
454 117 125 0 155 -6 155 -28 0 -48 -215 -182 -292 -182 -10 0 -18 -4 -18 -10
0 -5 20 -10 44 -10 59 0 171 -26 224 -52 31 -16 42 -27 42 -45 0 -27 -23 -30
-75 -9 -45 19 -175 32 -175 18 0 -5 20 -36 44 -69 76 -101 102 -172 77 -211
-20 -31 -263 67 -383 155 -53 39 -121 106 -195 191 -22 27 -41 36 -93 47 -68
15 -320 21 -320 8 0 -9 66 -53 79 -53 19 0 137 -127 159 -171 40 -84 34 -88
-103 -69 -133 20 -272 81 -345 153 -49 49 -61 70 -86 155 -11 39 -26 68 -37
74 -11 5 -87 13 -170 17 -85 3 -152 10 -154 16 -1 6 6 25 18 44 l20 33 117 -5
c64 -3 138 -10 164 -15 44 -8 49 -7 89 25 23 18 46 33 51 33 5 0 39 14 76 31
111 51 125 57 167 68 22 6 63 11 90 11 28 1 79 7 115 14 74 16 199 20 218 8z
m-2896 -58 c-3 -27 -76 -183 -90 -194 -4 -3 -25 -32 -47 -65 -22 -33 -42 -62
-45 -65 -15 -15 -107 -127 -114 -138 -4 -7 32 7 81 32 81 41 170 76 193 76 17
0 11 -17 -15 -48 -14 -17 -25 -32 -25 -34 0 -3 26 -11 58 -18 68 -15 202 -78
202 -94 -1 -26 -22 -39 -81 -51 -35 -7 -99 -22 -142 -34 -113 -31 -388 -61
-559 -61 l-147 0 -183 -73 c-101 -40 -194 -80 -208 -90 -13 -9 -28 -17 -31
-17 -4 0 -56 -31 -116 -68 -209 -131 -323 -179 -323 -136 0 9 14 29 32 46 36
34 212 158 223 158 5 0 32 16 61 35 29 19 55 35 58 35 3 0 22 11 43 26 37 25
95 54 228 113 39 18 77 36 85 41 8 6 25 14 37 20 12 5 42 40 67 77 24 37 55
80 68 94 75 85 102 111 178 177 76 66 225 167 283 193 12 5 29 13 37 19 13 8
59 29 150 68 35 15 45 9 42 -24z m4253 -358 c30 -6 51 -17 52 -26 4 -21 -71
-71 -141 -95 -56 -19 -86 -45 -52 -45 15 0 92 -23 131 -39 67 -28 66 -28 135
6 100 50 169 65 305 66 126 2 195 -12 195 -39 0 -29 -127 -134 -162 -134 -37
0 -12 -25 33 -32 24 -4 53 -12 64 -17 11 -5 36 -14 55 -21 19 -7 54 -21 77
-31 24 -11 45 -19 48 -19 11 0 223 -104 261 -127 32 -21 41 -33 42 -55 2 -61
-57 -55 -203 22 -50 26 -116 57 -148 68 -31 12 -65 26 -74 31 -52 28 -251 84
-282 79 -20 -3 -20 -4 7 -33 71 -76 115 -163 110 -216 -3 -29 -7 -34 -32 -37
-17 -2 -54 9 -95 29 -76 37 -186 144 -223 216 -13 24 -31 60 -41 79 -10 19
-25 34 -35 34 -10 0 -22 4 -27 9 -6 5 -39 19 -75 31 -36 11 -78 27 -95 34 -16
8 -60 25 -97 39 l-68 25 0 -21 c0 -38 60 -111 133 -162 121 -85 178 -151 147
-170 -17 -10 -204 43 -271 77 -137 71 -248 176 -299 284 -39 80 -39 115 -2
131 37 16 93 29 182 44 41 7 79 16 85 21 14 12 302 8 360 -6z"/>
<path d="M5382 5616 c-22 -12 -22 -13 -5 -28 10 -9 52 -30 93 -47 41 -16 87
-41 101 -55 30 -30 59 -34 59 -8 1 9 11 46 23 82 l23 65 -136 2 c-92 1 -142
-2 -158 -11z"/>
<path d="M4830 5513 c0 -42 3 -49 27 -60 28 -14 53 -17 53 -7 0 12 -24 51 -51
82 l-29 33 0 -48z"/>
<path d="M2470 5336 l0 -46 60 0 c49 0 61 3 70 20 19 35 -4 60 -55 60 -24 0
-50 3 -59 6 -13 5 -16 -2 -16 -40z"/>
<path d="M3164 5371 c-2 -2 -4 -24 -4 -48 0 -42 1 -43 34 -43 55 0 86 16 86
44 0 13 -6 28 -12 34 -14 10 -96 21 -104 13z"/>
<path d="M3501 5349 c-26 -26 -31 -38 -31 -79 0 -66 16 -96 59 -113 48 -20 90
-3 113 44 22 44 22 79 2 123 -30 62 -95 74 -143 25z"/>
<path d="M6120 2910 c-120 -34 -153 -49 -224 -104 -89 -68 -127 -166 -70 -180
26 -7 75 13 194 79 68 37 155 34 255 -10 145 -64 169 -70 266 -70 65 0 105 5
125 15 96 48 160 113 174 177 16 70 -58 94 -131 42 -14 -10 -46 -24 -70 -30
-48 -13 -41 -15 -249 64 -62 23 -213 32 -270 17z"/>
<path d="M4922 2589 c-113 -20 -164 -61 -463 -383 -102 -110 -297 -304 -395
-392 -133 -119 -324 -230 -457 -265 -70 -18 -187 -26 -200 -12 -4 3 11 14 32
24 104 46 281 186 338 266 63 88 76 186 43 318 -13 50 -29 103 -37 119 -8 16
-15 52 -15 79 1 28 -4 57 -10 64 -6 8 -34 13 -72 13 -61 0 -94 -13 -124 -50
-16 -19 -52 -91 -52 -103 0 -10 -5 -15 -95 -92 -38 -33 -72 -62 -75 -65 -3 -3
-34 -29 -70 -59 -36 -30 -72 -61 -80 -70 -8 -9 -28 -27 -45 -39 -16 -13 -46
-38 -65 -55 -19 -18 -62 -54 -95 -82 -33 -27 -71 -62 -85 -76 -49 -50 -223
-141 -292 -154 -52 -10 -104 2 -128 27 -15 17 -20 36 -20 80 0 56 2 60 57 125
31 38 63 75 72 84 54 54 91 109 91 132 0 22 -26 80 -52 119 -10 14 -18 28 -18
31 0 2 18 7 39 11 74 11 88 55 38 117 -60 74 -121 76 -352 8 -115 -33 -296
-116 -435 -198 -67 -40 -181 -120 -195 -136 -5 -6 -18 -16 -29 -22 -10 -5 -44
-36 -77 -68 -62 -61 -89 -122 -89 -198 0 -48 29 -158 46 -178 8 -8 14 -21 14
-27 0 -7 31 -44 69 -82 62 -64 72 -70 109 -70 75 0 130 35 347 220 55 47 122
106 149 132 28 26 52 46 54 44 2 -2 -8 -29 -22 -60 -14 -31 -26 -61 -26 -66 0
-6 -4 -18 -9 -28 -20 -40 -31 -92 -31 -152 0 -52 4 -69 26 -97 24 -31 28 -33
88 -33 49 0 80 7 137 32 41 18 76 35 79 38 3 3 22 16 43 28 20 12 43 26 50 32
6 6 35 27 62 47 28 20 87 68 131 105 45 37 84 68 88 68 3 0 6 -9 6 -20 0 -55
27 -107 87 -167 33 -33 72 -64 85 -68 12 -4 29 -12 37 -18 26 -22 87 -38 161
-44 81 -6 168 11 250 48 25 12 56 26 70 33 38 17 189 108 208 126 9 8 36 28
60 43 23 15 50 34 60 42 9 8 45 36 78 63 34 26 76 61 94 78 120 110 259 243
343 326 53 53 97 94 97 91 0 -16 -148 -245 -347 -537 -23 -33 -94 -124 -158
-201 -190 -228 -259 -336 -289 -452 -46 -176 26 -264 128 -159 65 66 87 102
222 365 44 84 87 168 96 187 l18 33 37 -15 c21 -9 73 -17 122 -18 60 -2 102
-9 141 -24 74 -30 186 -43 266 -31 57 8 155 45 219 81 62 36 179 111 240 154
78 55 122 84 128 84 3 0 5 -10 5 -22 1 -72 112 -240 182 -278 39 -21 94 -11
163 29 37 22 73 46 80 53 8 7 35 31 62 53 47 39 125 105 135 115 39 39 160
140 160 133 0 -5 -4 -13 -8 -18 -14 -16 -49 -114 -73 -203 -25 -92 -19 -138
24 -188 20 -23 30 -26 85 -25 56 0 76 6 168 52 57 28 104 56 104 60 0 5 6 9
14 9 8 0 16 3 18 8 2 4 50 43 107 86 57 43 118 92 135 108 l30 29 19 -62 c27
-88 73 -153 142 -198 67 -43 97 -52 177 -52 67 -1 86 4 145 33 37 18 70 36 71
40 2 5 8 8 14 8 5 0 43 27 83 60 63 51 79 60 114 60 66 0 167 28 224 63 95 58
107 70 107 116 0 23 -1 41 -3 41 -2 0 -39 -20 -83 -45 -84 -48 -141 -58 -164
-30 -10 13 -10 19 3 33 58 65 127 241 127 323 0 68 -16 95 -66 116 -37 15 -41
20 -29 33 31 35 18 81 -28 98 -45 16 -184 15 -250 -2 -53 -14 -138 -47 -167
-66 -8 -6 -24 -14 -35 -19 -30 -13 -123 -79 -179 -125 -101 -85 -216 -252
-216 -314 0 -13 -24 -35 -77 -70 -120 -79 -186 -105 -266 -106 -65 -1 -70 1
-93 29 -27 34 -31 77 -10 126 15 35 19 41 109 143 76 86 106 129 107 148 0 21
-17 61 -47 110 -13 21 -23 39 -23 42 0 2 17 6 38 10 21 3 47 15 57 26 15 17
16 24 6 48 -7 16 -28 45 -47 63 -34 33 -38 34 -107 33 -91 -2 -196 -29 -362
-94 -19 -7 -208 -100 -263 -129 -90 -47 -271 -181 -337 -249 -43 -44 -92 -121
-85 -132 6 -8 -140 -106 -215 -144 -110 -55 -211 -86 -285 -86 -67 0 -110 8
-110 19 0 3 24 23 53 43 55 40 65 49 191 156 64 55 135 130 206 219 31 39 70
154 70 208 0 65 -29 78 -140 64 -96 -12 -194 -60 -427 -213 -106 -69 -193
-122 -193 -119 0 7 110 173 120 183 3 3 17 21 30 40 40 57 70 90 164 180 49
47 120 115 156 151 65 65 91 112 72 131 -14 14 -81 18 -140 7z m-2445 -506
c-48 -54 -346 -352 -368 -368 -104 -78 -229 -151 -279 -165 -52 -14 -76 -6
-95 30 -43 82 7 177 140 267 101 68 321 172 515 242 45 17 81 31 100 41 32 16
27 -3 -13 -47z m3851 -5 c-65 -76 -294 -305 -353 -354 -55 -45 -170 -124 -180
-124 -4 0 -19 -9 -34 -19 -35 -25 -104 -43 -135 -35 -32 8 -50 60 -42 119 8
49 56 118 105 150 17 11 31 23 31 28 0 4 5 7 12 7 6 0 19 6 27 14 18 15 122
70 216 113 91 41 389 160 394 157 2 -2 -16 -27 -41 -56z m-2809 -20 c19 -84
25 -227 11 -278 -16 -58 -87 -131 -163 -165 l-58 -27 -22 28 c-53 68 -99 103
-159 121 l-61 18 58 45 c31 25 62 50 69 55 10 9 62 51 165 133 19 15 57 48 85
74 28 26 54 48 57 48 3 0 11 -24 18 -52z m3975 30 c-4 -7 -26 -42 -50 -78 -38
-60 -60 -102 -93 -183 -16 -39 -14 -141 3 -182 10 -23 11 -37 4 -41 -62 -38
-168 -86 -203 -91 -60 -8 -125 4 -155 28 -31 26 -30 70 4 182 22 71 32 88 73
126 63 58 160 121 297 192 118 61 131 66 120 47z m-2530 -91 c29 -21 13 -86
-39 -155 -41 -55 -160 -175 -237 -241 -36 -31 -37 -32 -74 -16 -24 10 -69 15
-135 15 -55 0 -99 3 -99 6 0 20 195 210 285 277 148 112 249 150 299 114z"/>
<path d="M8440 1833 c-125 -14 -254 -108 -315 -229 -29 -57 -30 -64 -30 -189
1 -125 2 -132 30 -181 37 -63 68 -100 120 -140 37 -29 60 -41 138 -73 15 -6
67 -11 115 -11 130 0 233 43 313 132 40 43 87 130 96 175 8 40 9 183 1 216
-14 56 -55 124 -109 179 -50 51 -80 69 -171 106 -31 13 -136 21 -188 15z m164
-95 c58 -19 81 -33 126 -78 78 -77 103 -134 103 -235 -1 -88 -20 -147 -70
-211 -80 -101 -231 -147 -358 -109 -167 51 -269 220 -231 383 21 89 61 148
149 219 25 20 129 52 171 52 22 1 71 -9 110 -21z"/>
<path d="M8330 1420 l0 -220 40 0 40 0 0 95 0 95 26 0 c41 0 59 -15 125 -105
l61 -85 49 0 c27 0 49 2 49 4 0 15 -103 157 -126 173 l-28 21 31 6 c53 12 83
51 83 108 0 28 -7 59 -16 74 -30 46 -62 54 -204 54 l-130 0 0 -220z m254 119
c13 -19 13 -25 0 -50 -13 -27 -19 -29 -74 -30 -33 -1 -68 -2 -77 -3 -15 -1
-19 9 -21 52 l-3 52 80 0 c70 0 82 -3 95 -21z"/>
</g>
</svg>
