<?xml version="1.0" standalone="no"?>
<!DOCTYPE svg PUBLIC "-//W3C//DTD SVG 20010904//EN"
 "http://www.w3.org/TR/2001/REC-SVG-20010904/DTD/svg10.dtd">
<svg version="1.0" xmlns="http://www.w3.org/2000/svg"
 width="512.000000pt" height="512.000000pt" viewBox="0 0 512.000000 512.000000"
 preserveAspectRatio="xMidYMid meet">

<g transform="translate(0.000000,512.000000) scale(0.100000,-0.100000)"
fill="#000000" stroke="none">
<path d="M1806 4781 l-1719 -338 -29 -32 c-15 -17 -28 -41 -28 -52 0 -44 390
-2010 405 -2038 24 -48 63 -54 183 -31 56 11 107 20 112 20 6 0 10 -162 12
-400 l3 -400 28 -27 c26 -27 32 -28 142 -31 63 -2 115 -7 115 -11 0 -4 -16
-54 -35 -111 -43 -126 -45 -168 -10 -200 19 -18 222 -89 743 -262 2307 -766
2625 -869 2649 -863 14 3 35 16 47 28 16 16 113 297 345 996 340 1025 337
1015 292 1055 -10 9 -157 63 -327 120 l-309 103 -5 644 c-6 722 -2 687 -77
708 -21 6 -127 11 -235 11 -179 0 -197 2 -202 18 -3 9 -62 307 -131 662 -69
355 -130 662 -136 682 -11 42 -60 88 -92 87 -12 0 -796 -152 -1741 -338z
m1659 97 c16 -66 344 -1752 341 -1755 -4 -4 -3156 -622 -3189 -626 -19 -2 -31
53 -193 882 -96 487 -172 886 -170 888 3 3 3157 626 3198 632 4 1 10 -9 13
-21z m745 -2323 l0 -905 -1632 2 -1633 3 -3 346 -2 347 22 5 c13 3 140 29 283
56 143 28 271 53 285 56 14 3 -6 -11 -45 -32 -98 -52 -231 -186 -273 -274 -36
-75 -62 -174 -62 -236 0 -33 7 -50 29 -75 l29 -33 686 -3 c763 -3 733 -5 762
63 27 64 -10 225 -76 328 -111 175 -312 295 -553 330 l-89 13 524 102 523 102
493 0 494 0 29 29 c40 41 41 101 1 141 l-28 28 23 20 c39 35 39 63 -4 284
l-39 208 128 0 128 0 0 -905z m-2408 -310 c4 -72 8 -89 28 -110 43 -46 111
-42 152 9 14 16 18 41 18 104 l0 84 43 -7 c54 -9 160 -49 206 -77 81 -50 172
-153 187 -211 l6 -27 -536 0 c-295 0 -536 2 -536 5 0 3 10 26 22 52 28 60 118
150 188 187 50 27 180 74 206 76 7 0 13 -31 16 -85z m392 -830 c27 -28 41 -35
71 -35 29 0 45 8 72 35 l35 35 103 0 103 0 37 -42 c52 -62 98 -160 103 -223
l4 -54 -458 153 c-253 84 -466 155 -474 159 -8 3 72 6 178 6 l193 1 33 -35z"/>
<path d="M3224 4329 c-48 -14 -79 -53 -79 -101 0 -33 6 -45 33 -69 35 -31 60
-35 127 -18 59 15 90 49 90 101 0 33 -6 45 -33 69 -34 31 -76 36 -138 18z"/>
<path d="M1205 4296 c-104 -26 -179 -87 -227 -184 -30 -61 -33 -75 -33 -157 0
-71 5 -100 22 -137 30 -66 105 -143 172 -175 48 -24 68 -28 146 -28 82 0 96 3
157 33 106 52 167 134 189 255 32 172 -83 346 -257 392 -68 18 -101 18 -169 1z
m160 -215 c42 -24 68 -74 67 -129 -2 -146 -205 -193 -272 -62 -23 46 -25 78
-6 123 37 87 127 116 211 68z"/>
<path d="M2580 4205 c-254 -51 -265 -54 -292 -84 -41 -46 -35 -102 16 -143 31
-25 60 -23 318 27 276 54 292 59 318 92 43 55 5 147 -65 157 -16 3 -149 -19
-295 -49z"/>
<path d="M2882 3790 c-243 -48 -456 -93 -473 -100 -32 -14 -59 -55 -59 -90 0
-48 51 -100 98 -100 45 0 976 190 996 203 30 20 50 70 42 103 -4 14 -18 37
-31 50 -20 20 -34 24 -77 23 -29 -1 -252 -41 -496 -89z"/>
<path d="M1455 3560 c-292 -32 -539 -194 -650 -425 -50 -104 -71 -206 -60
-293 12 -96 41 -132 105 -132 54 0 1314 250 1337 266 13 8 30 26 40 40 14 22
15 34 5 80 -45 214 -250 398 -502 449 -92 19 -193 24 -275 15z m306 -233 c37
-14 84 -36 106 -50 37 -24 133 -121 133 -136 0 -4 -228 -51 -507 -105 -280
-55 -517 -102 -527 -104 -17 -5 -18 -1 -12 34 21 110 150 259 281 322 37 18
69 31 72 28 3 -3 12 -35 19 -73 18 -85 34 -109 80 -122 44 -12 74 -2 104 36
19 24 21 35 16 88 -3 33 -9 73 -13 89 l-6 29 94 -6 c65 -3 115 -13 160 -30z"/>
<path d="M2982 3335 c-270 -54 -485 -101 -498 -110 -27 -17 -44 -53 -44 -90 0
-32 44 -81 77 -88 22 -4 551 94 941 174 94 19 141 83 107 148 -16 32 -61 62
-92 60 -10 0 -231 -43 -491 -94z"/>
<path d="M2930 2473 c-75 -39 -72 -146 5 -179 30 -12 111 -14 536 -12 l501 3
29 33 c39 44 39 90 0 134 l-29 33 -504 3 c-464 2 -506 1 -538 -15z"/>
<path d="M2912 1995 c-51 -43 -51 -107 -1 -154 23 -21 29 -21 538 -21 474 0
518 2 537 18 44 35 55 82 30 131 -27 51 -30 51 -571 51 l-503 0 -30 -25z"/>
</g>
</svg>
