<?xml version="1.0" standalone="no"?>
<!DOCTYPE svg PUBLIC "-//W3C//DTD SVG 20010904//EN"
 "http://www.w3.org/TR/2001/REC-SVG-20010904/DTD/svg10.dtd">
<svg version="1.0" xmlns="http://www.w3.org/2000/svg"
 width="1024.000000pt" height="1024.000000pt" viewBox="0 0 1024.000000 1024.000000"
 preserveAspectRatio="xMidYMid meet">

<g transform="translate(0.000000,1024.000000) scale(0.100000,-0.100000)"
fill="#000000" stroke="none">
<path d="M8054 10095 c-152 -33 -298 -113 -424 -232 -68 -64 -125 -136 -265
-335 -98 -139 -606 -860 -1128 -1603 -523 -742 -1030 -1462 -1127 -1600 -97
-137 -241 -342 -320 -455 -79 -113 -192 -266 -250 -340 -152 -191 -161 -212
-112 -267 30 -34 324 -273 359 -291 28 -16 68 -15 94 0 11 7 66 69 122 138 55
69 198 231 317 360 118 129 470 512 781 850 311 338 983 1070 1494 1625 510
556 943 1030 962 1055 48 65 129 233 153 320 29 105 36 264 16 360 -66 313
-346 486 -672 415z m162 -158 c-189 -120 -338 -261 -396 -377 -12 -25 -24 -47
-26 -49 -2 -2 -27 18 -56 45 -29 27 -70 63 -91 80 l-38 31 38 50 c77 103 214
189 345 218 82 18 252 19 224 2z"/>
<path d="M307 8589 c-132 -31 -255 -153 -291 -291 -16 -58 -17 -284 -14 -3103
l3 -3040 32 -67 c60 -126 170 -213 302 -238 74 -14 9488 -14 9562 0 132 25
242 112 302 238 l32 67 3 3040 c3 2819 2 3045 -14 3103 -31 119 -118 218 -241
275 l-48 22 -692 3 -692 3 -273 -297 c-150 -163 -274 -300 -276 -305 -2 -5
334 -10 810 -11 l813 -3 0 -2455 0 -2455 -4505 0 -4505 0 0 2455 0 2455 2622
3 2621 2 211 299 c116 165 211 302 211 305 0 10 -5932 5 -5973 -5z"/>
<path d="M3916 5119 c-134 -27 -259 -122 -324 -245 -17 -34 -57 -135 -88 -225
-133 -389 -238 -504 -499 -548 -39 -7 -143 -15 -232 -20 -90 -4 -166 -11 -170
-14 -24 -25 103 -58 312 -84 172 -20 605 -23 775 -4 275 30 528 86 725 160
180 68 286 146 335 246 21 42 25 65 25 141 0 85 -2 95 -39 169 -67 135 -235
286 -402 360 -134 60 -309 86 -418 64z"/>
<path d="M4056 1408 c-3 -13 -21 -124 -41 -247 -51 -321 -75 -367 -281 -527
-109 -85 -174 -150 -174 -176 0 -4 12 -16 27 -25 26 -17 106 -18 1438 -20 775
-1 1456 1 1513 4 76 4 108 10 124 23 l21 17 -21 35 c-12 20 -71 74 -130 119
-136 106 -190 162 -229 236 -40 75 -46 99 -83 338 -17 110 -33 210 -36 223
l-4 22 -1060 0 -1060 0 -4 -22z"/>
</g>
</svg>
